PathFileType	4	(X/Y/Z)	38_2_52_p0_0-331_filt_butterworth.trc
DataRate	CameraRate	NumFrames	NumMarkers	Units	OrigDataRate	OrigDataStartFrame	OrigNumFrames
60.0	60.0	5	27	m	60.0	124	331
Frame#	Time	RHip			RKnee			RAnkle			RBigToe			RSmallToe			RHeel			LHip			LKnee			LAnkle			LBigToe			LSmallToe			LHeel			Neck			Head			Nose			RShoulder			RElbow			RWrist			RThumb			RIndex			RPinky			LShoulder			LElbow			LWrist			LThumb			LIndex			LPinky			
		X1	Y1	Z1	X2	Y2	Z2	X3	Y3	Z3	X4	Y4	Z4	X5	Y5	Z5	X6	Y6	Z6	X7	Y7	Z7	X8	Y8	Z8	X9	Y9	Z9	X10	Y10	Z10	X11	Y11	Z11	X12	Y12	Z12	X13	Y13	Z13	X14	Y14	Z14	X15	Y15	Z15	X16	Y16	Z16	X17	Y17	Z17	X18	Y18	Z18	X19	Y19	Z19	X20	Y20	Z20	X21	Y21	Z21	X22	Y22	Z22	X23	Y23	Z23	X24	Y24	Z24	X25	Y25	Z25	X26	Y26	Z26	X27	Y27	Z27	
124	2.066666666666667	0.38751766130802734	0.7339858868115412	0.5258936855126438	0.39668274009784255	0.9060317820880268	0.9572120237641749	0.3593857325434682	1.0755583312322041	1.3694927594755155	0.32191209250984143	0.8887413905376378	1.4378222594293624	0.3906110355253628	0.9028854504202235	1.4385789242051297	0.35249038316110054	1.1606922062395046	1.4068157781539892	0.1853952377175289	0.7634459109171731	0.5200028341702078	0.1807179500138652	0.9255747479904746	0.9511494393165304	0.19731045589303675	1.0682621167532793	1.3234111080053823	0.17162329599487586	0.8997585214860234	1.4175133896173635	0.11853697249934783	0.9517597758940785	1.4090087029162484	0.21197916529288213	1.1632461692147553	1.398091512372475	0.2840922275692199	0.5833691673548356	-0.06017452673851438	0.25707658686979434	0.3220886776791029	-0.2647810018316798	0.25928258771181667	0.3683132141105598	-0.09191289006890035	0.4640030943770475	0.6358643170869076	-0.00592808038160993	0.5158115292024069	0.6620843504417563	0.2634685019313619	0.35936710818386686	0.4203397332825798	0.2717183205871959	0.24277344239548745	0.3552446156423314	0.2609584221839844	0.2350704442878041	0.3070915664024854	0.27430143131297013	0.28326712838247853	0.3743313902428649	0.3035488960832854	0.12790625165853875	0.6560446453180457	-0.010035256952992934	0.07181422349684673	0.6448617378215832	0.23039262397191612	0.10043164163858018	0.44345406669701837	0.4039218927032942	0.1496261762888706	0.3027986689541723	0.4367808014787954	0.1477697313405591	0.29424971071063594	0.4763253031042468	0.12680771781412728	0.3790403134669965	0.5009031203566636
125	2.083333333333333	0.38863000893986605	0.7287962515476117	0.5258338260391032	0.39647403672744724	0.9060790680440014	0.9572896122750254	0.3600043954569654	1.0701102772348634	1.3680509123218774	0.3219197122040859	0.8888021247368366	1.4377306921201682	0.39067020270041697	0.9028414186709329	1.4384641205810946	0.35231607570679113	1.1612687423019112	1.406350860535355	0.18643701032497514	0.7590570151968352	0.5199990745793154	0.18075728873102775	0.9256441442295886	0.9511321042900547	0.19722843474220386	1.0685846203757756	1.323275271604233	0.17163853498221493	0.8996970815037832	1.4175032430915868	0.11856903151943228	0.9519216980347143	1.4090839158635384	0.21183970425683118	1.1633058999748591	1.398220330789358	0.2835168443999	0.5865801328818482	-0.060921077899141335	0.2583468045048932	0.32635070363725366	-0.2662743009888038	0.2592207267334608	0.36795345996098894	-0.09216034831564943	0.4639840701454911	0.6356185094131457	-0.007555085964909375	0.515909774350595	0.6520008909404156	0.260174756968138	0.3589241863465944	0.42130655523771066	0.27409022640157343	0.23836346436681874	0.3553240504091095	0.26720546856542937	0.22901154925179884	0.3145959157870896	0.2837134894046999	0.28209333995440555	0.3802669652613553	0.3136283803276244	0.12784762996896415	0.6556201988286395	-0.011632613827197854	0.0717875114863239	0.6447428567307887	0.2304539218127884	0.10034350534170426	0.44055006900381266	0.4039028276896318	0.1492191633820893	0.3071952456614007	0.4370372504471257	0.14908620460967448	0.2935620360860072	0.47791644234723674	0.12783978901306786	0.3739923127159606	0.5022851563989713
126	2.1	0.39007109752800917	0.7234730267790437	0.5257530013286181	0.39630864533459464	0.9061959389649128	0.9573973498163593	0.36082943133973205	1.0629157475801367	1.3661355595531	0.32187571029032636	0.8887592338815462	1.4376674057217398	0.39068196383042014	0.902814624018676	1.438376205590549	0.35223632438349667	1.1616140752577508	1.4050917131640412	0.1871113844589203	0.7556283193810523	0.5200656669427421	0.1807858487870604	0.9257162264772996	0.9511422076544918	0.1971478569656632	1.06871643034492	1.3247096795788742	0.17163509325207466	0.8996723738202719	1.4175189913590591	0.11863290904566845	0.9522007350423177	1.4092330584741173	0.21179236399456655	1.1633978319285256	1.3983968457424907	0.28277408808491733	0.5909101896991487	-0.06134879517201309	0.259691080665912	0.32806654553419295	-0.26636958131339433	0.2592822210277067	0.36775150199333917	-0.0926709296561122	0.4639650469132963	0.6355898503841746	-0.008540852198742843	0.5167548718561643	0.6415997184245223	0.2566492264147318	0.35854797034584096	0.42261687997136477	0.2781829263945286	0.23309345636185194	0.3573641498197659	0.2750495236488924	0.22251671384286098	0.3229836473055813	0.293931583663893	0.2794270693979886	0.3893152665080624	0.32784812972320077	0.12775881035579473	0.6549111827612695	-0.013411886746628644	0.07181452499268255	0.6450022969763645	0.23043222236974875	0.1018684189698018	0.43395434281854806	0.4038644236667184	0.14842887762454027	0.30900757871451123	0.4371884113931459	0.1497119778909261	0.29126144204238824	0.47827779690582806	0.1302034844564512	0.36134418109837535	0.5034226261409319
127	2.1166666666666667	0.3914579889360493	0.7180674457540771	0.5256931248894154	0.3962648829308253	0.9063848963595527	0.9575158970041693	0.3614164023176781	1.0578567456985286	1.3647788891534096	0.3218129584510583	0.8887239157146406	1.4376622156507324	0.39064067437010885	0.9027567557925343	1.4383380195888342	0.35233328297946764	1.1615231154556467	1.403403185560617	0.18718416928331003	0.7529867844178831	0.5204502405492044	0.1808468350962159	0.9256796523692254	0.9511682405644551	0.1971542230892235	1.0687165773954173	1.3265362044631603	0.17159948478460177	0.8996362421552696	1.417548289524872	0.11868509573490098	0.9525060305613975	1.4094104961265743	0.211913461841063	1.1634851839944342	1.3984017063676701	0.2822486290838944	0.5944182731701475	-0.06161417154372024	0.26058967558745955	0.32754134991145034	-0.26496071009740113	0.25975906563284507	0.36874009883951925	-0.09320422433758253	0.46394544690036643	0.63567289493646	-0.008859987181520885	0.5178507782325543	0.6305101556022685	0.2543666009286088	0.35724779345675045	0.4230729602867646	0.28346863940332906	0.22717596985426455	0.3604633551229423	0.2835854705160784	0.21674891357299203	0.3305055011124757	0.30431016909821684	0.27620429795565105	0.40182568398595125	0.3424089090068747	0.12767174183057706	0.6541085359144178	-0.014906621065459615	0.07189976583396149	0.6449576643289898	0.2302243009270556	0.10383203685331571	0.425858719190033	0.4038426343649949	0.14738551737654154	0.3055773281528903	0.43719894574590557	0.1499178017302794	0.28789674116837727	0.476857409723191	0.1327566939999391	0.3457085410869154	0.5037442633434895
128	2.1333333333333333	0.39250327016145536	0.7125495147616744	0.5256240027940879	0.39639631208443327	0.9066965288464868	0.9575782705414144	0.36142501758139195	1.0578904501259632	1.3647705783167845	0.32175041038455215	0.8887474429971842	1.4377067774414904	0.3905682067403662	0.9026698748499274	1.4383501851502296	0.3525136282586799	1.161213889092206	1.4022193034831325	0.18687281366296743	0.7490605684572459	0.5213163001422513	0.1810130755764328	0.9253999406406253	0.9511797518306606	0.19729486881940617	1.068686879156548	1.3273002050944664	0.17153801837503496	0.8995537432633213	1.4175879756509875	0.11869024177144281	0.9526836973863377	1.4095298601164434	0.2122541983299014	1.1636884761285415	1.3982673014217006	0.28211084179055446	0.5962414099464989	-0.06186724350088514	0.2609737260917954	0.3267635625700467	-0.262715054150575	0.260865120437724	0.37170548607853526	-0.09356418365571116	0.46393538038242443	0.6357626339851506	-0.008827322711657398	0.5183962982967365	0.6206594272593429	0.25367248390723135	0.35440434211058097	0.4215827673850368	0.28865820981493745	0.2215747415829078	0.36253364494117496	0.29215056052749555	0.21275155498448176	0.3354064455883902	0.3154640001836265	0.2738838294721354	0.41438273171979717	0.3542073147215457	0.1276298467821402	0.6535202935720754	-0.015798840089458994	0.07200666076599677	0.6443736992122675	0.22963743885940846	0.10528060697830849	0.42073380528113674	0.40388770583746614	0.14644303598493433	0.2986127985301019	0.4371150777350119	0.14904559729146788	0.28506232521401337	0.474069051050585	0.13407171345177907	0.3356443238454604	0.5032672427198299
